<svg id="Layer_1" data-name="Layer 1" xmlns="http://www.w3.org/2000/svg" xmlns:xlink="http://www.w3.org/1999/xlink" viewBox="0 0 500 300"><defs><style>.cls-1{fill:none;}.cls-2{clip-path:url(#clip-path);}.cls-3{fill:#060000;}</style><clipPath id="clip-path"><rect class="cls-1" x="47.74" y="62.51" width="402.68" height="174.97"/></clipPath></defs><title>PG_logo</title><g class="cls-2"><path class="cls-3" d="M80.83,98.21C89.4,98.21,97,94.56,97,84.38c0-9.73-6.43-13.83-15.53-13.83H69.24V98.21ZM61.74,63.76H83.07c13.74,0,22,7.77,22,20.71C105,97.77,95.38,105,82,105H69.24v25.88h-7.5Z"/><path class="cls-3" d="M129.25,63.76h7.5v43.73c0,12.23,6.87,17.85,17.14,17.85,9.36,0,17.13-5.71,17.13-19.36V63.76h7.49v42.3c0,17.59-11,26.06-24.62,26.06-16.34,0-24.64-9.55-24.64-23.47Z"/><path class="cls-3" d="M229.32,124.09c8.66,0,13.3-5.62,13.3-12.22,0-5.27-3.84-12.05-15-12.05H215.32v24.27Zm-2.85-30.52c8.21,0,13.12-4.37,13.12-12.23,0-8.83-5.18-11.33-12.85-11.33H215.32V93.57ZM207.82,63.76h21.59c11.7,0,18.21,7.41,18.21,15.71,0,7.41-2,14.64-10.89,16.42v.18c7.23.53,13.38,5.53,13.38,16.33,0,10.08-8.11,18.47-20.07,18.47H207.82Z"/></g><polygon class="cls-3" points="276.79 63.77 284.29 63.77 284.29 124.09 315.7 124.09 315.7 130.88 276.79 130.88 276.79 63.77"/><rect class="cls-3" x="340.14" y="63.77" width="7.5" height="67.11"/><g class="cls-2"><path class="cls-3" d="M431.34,85.54c-3.39-12-12-16.24-22.22-16.24-18.66,0-26.06,14.45-26.06,28,0,13.38,6.51,28,26.06,28,12.67,0,19.81-7.32,22.66-18.56l7.59.89c-2.86,11.51-10.62,24.45-31.06,24.45-19.45,0-33.29-13.29-33.29-34.8,0-20.26,14.73-34.81,34.1-34.81,21.41,0,27.93,13.21,29.8,22.49Z"/><path class="cls-3" d="M80.14,200.18h30.69c-.27,19.1-8.56,37.31-31.32,37.31-20.25,0-31.77-14.19-31.77-34.81,0-17.76,11.16-34.8,33.37-34.8,15.71,0,26.33,10,27.94,20.61l-7.41.72c-2-6.7-7.59-14.55-21.78-14.55-15.79,0-24.09,12.4-24.09,28.38,0,16.87,9.91,27.66,23.83,27.66,17.13,0,22.31-13.65,23.2-23.73H80.14Z"/><path class="cls-3" d="M169.2,174.66c-18.65,0-26.06,14.46-26.06,28,0,11.07,7.23,28,26.06,28s26.06-16.95,26.06-28c0-13.56-7.41-28-26.06-28m0-6.78c19.72,0,34.09,13.29,34.09,34.8,0,20.26-14.73,34.81-34.09,34.81-19.72,0-34.09-13.3-34.09-34.81,0-20.25,14.72-34.8,34.09-34.8"/><path class="cls-3" d="M261.65,174.66c-18.64,0-26,14.46-26,28,0,11.07,7.23,28,26,28s26.06-16.95,26.06-28c0-13.56-7.4-28-26.06-28m0-6.78c19.73,0,34.1,13.29,34.1,34.8,0,20.26-14.73,34.81-34.1,34.81-19.71,0-34.08-13.3-34.08-34.81,0-20.25,14.72-34.8,34.08-34.8"/><path class="cls-3" d="M330.5,229.46h14.72c17.14,0,25.26-13.48,25.26-27.22,0-13.48-7.14-26.33-27.13-26.33H330.5Zm13.3-60.33c26.68,0,34.71,17.49,34.71,33.2,0,16.78-10.44,33.91-31.86,33.91H323V169.13Z"/><path class="cls-3" d="M441.32,186.62c-.36-5.45-4.47-12-15.17-12S411,180.73,411,187.16c0,4.46,2.68,8.65,15,11.06,16.86,3.31,24.45,7.41,24.45,19.1,0,10.08-7.14,20.17-24.54,20.17-15.17,0-23.56-7.5-24.27-19.81h7.58c1.34,8.83,7.32,13,17.05,13,11.51,0,16.15-6.69,16.15-12.67,0-7.32-4.11-9.63-16-12.13-15.44-3.22-22.93-7.5-22.93-18.74,0-11,9-19.28,22.57-19.28,16.51,0,21.6,9,22.94,18.74Z"/></g></svg>