<svg id="Layer_1" data-name="Layer 1" xmlns="http://www.w3.org/2000/svg" xmlns:xlink="http://www.w3.org/1999/xlink" viewBox="0 0 1000 500"><defs><style>.cls-1{fill:none;}.cls-2{clip-path:url(#clip-path);}</style><clipPath id="clip-path"><rect class="cls-1" x="10" y="28" width="965.39" height="443.02"/></clipPath></defs><title>PG_logo</title><g class="cls-2"><path d="M89.34,118.38c20.53,0,38.72-9.26,38.72-35,0-24.62-15.4-35-37.22-35H61.52v70ZM43.55,31.16H94.68c32.95,0,52.64,19.65,52.64,52.42,0,33.67-23.11,52-55.2,52H61.52v65.53h-18Z"/><path d="M205.42,31.16h18V141.88c0,31,16.47,45.19,41.08,45.19,22.46,0,41.08-14.47,41.08-49V31.16h18v107.1c0,44.52-26.32,66-59.06,66-39.15,0-59.05-24.18-59.05-59.43Z"/><path d="M445.33,183.9c20.75,0,31.88-14.23,31.88-31,0-13.34-9.2-30.5-35.94-30.5H411.74V183.9Zm-6.84-77.27c19.68,0,31.45-11.07,31.45-31,0-22.37-12.42-28.7-30.81-28.7H411.74v59.66ZM393.77,31.16h51.77c28,0,43.65,18.75,43.65,39.77,0,18.75-4.71,37.06-26.1,41.58V113c17.33,1.35,32.09,14,32.09,41.34,0,25.53-19.47,46.78-48.13,46.78H393.77Z"/></g><polygon points="559.13 31.16 559.13 201.07 652.41 201.07 652.41 183.91 577.11 183.91 577.11 31.16 559.13 31.16"/><rect x="711.02" y="31.17" width="17.98" height="169.91"/><g class="cls-2"><path d="M929.64,86.29C921.52,56,900.76,45.17,876.37,45.17c-44.71,0-62.47,36.6-62.47,70.94,0,33.9,15.62,71,62.47,71,30.38,0,47.49-18.52,54.34-47l18.19,2.26c-6.85,29.15-25.46,61.91-74.46,61.91-46.63,0-79.8-33.66-79.8-88.13C794.64,64.82,830,28,876.37,28c51.35,0,67,33.44,71.46,56.94Z"/><path d="M87.66,376.57h73.6c-.64,48.35-20.54,94.45-75.1,94.45C37.6,471,10,435.09,10,382.9c0-45,26.74-88.13,80-88.13,37.66,0,63.12,25.31,67,52.2l-17.76,1.8C134.3,331.83,121,312,87,312c-37.87,0-57.76,31.41-57.76,71.85,0,42.71,23.75,70,57.12,70,41.08,0,53.48-34.57,55.63-60.1H87.66Z"/><path d="M301.19,312c-44.71,0-62.47,36.61-62.47,70.95,0,28,17.33,70.94,62.47,70.94s62.48-42.93,62.48-70.94c0-34.34-17.76-70.95-62.48-70.95m0-17.18c47.29,0,81.73,33.66,81.73,88.13,0,51.29-35.3,88.13-81.73,88.13-47.28,0-81.72-33.67-81.72-88.13,0-51.29,35.29-88.13,81.72-88.13"/><path d="M522.85,312c-44.72,0-62.48,36.61-62.48,70.95,0,28,17.34,70.94,62.48,70.94s62.47-42.93,62.47-70.94c0-34.34-17.76-70.95-62.47-70.95m0-17.18c47.28,0,81.73,33.66,81.73,88.13,0,51.29-35.3,88.13-81.73,88.13-47.29,0-81.73-33.67-81.73-88.13,0-51.29,35.3-88.13,81.73-88.13"/><path d="M687.91,450.68H723.2c41.07,0,60.55-34.11,60.55-68.91,0-34.12-17.12-66.66-65-66.66H687.91Zm31.87-152.74c64,0,83.23,44.29,83.23,84.05,0,42.48-25,85.86-76.39,85.86H669.93V297.94Z"/><path d="M953.57,342.23c-.86-13.79-10.7-30.28-36.37-30.28-25.47,0-36.38,15.37-36.38,31.63,0,11.3,6.43,21.92,35.95,28C957.2,380,975.39,390.36,975.39,420c0,25.53-17.11,51.06-58.83,51.06-36.37,0-56.49-19-58.19-50.16h18.18c3.21,22.36,17.54,33,40.86,33,27.6,0,38.72-16.95,38.72-32.08,0-18.53-9.83-24.4-38.29-30.72-37-8.13-55-19-55-47.46,0-27.79,21.6-48.81,54.12-48.81,39.58,0,51.78,22.83,55,47.46Z"/></g></svg>